<svg width="46" height="46" viewBox="0 0 46 46" fill="none" xmlns="http://www.w3.org/2000/svg">
<g clip-path="url(#clip0_1_14)">
<path d="M23.5003 35.3553C23.5003 35.488 23.4476 35.6153 23.3538 35.7091C23.2599 35.8029 23.1327 35.8556 23 35.8556C22.8673 35.8556 22.7401 35.8029 22.6462 35.7091C22.5524 35.6153 22.4997 35.488 22.4997 35.3553V23.1277L10.2721 23.1277C10.1394 23.1277 10.0121 23.075 9.91833 22.9812C9.82451 22.8873 9.7718 22.7601 9.7718 22.6274C9.7718 22.4947 9.82451 22.3675 9.91833 22.2737C10.0121 22.1798 10.1394 22.1271 10.2721 22.1271L22.4997 22.1271V9.89949C22.4997 9.7668 22.5524 9.63956 22.6463 9.54574C22.7401 9.45192 22.8673 9.39921 23 9.39921C23.1327 9.39921 23.2599 9.45192 23.3537 9.54574C23.4476 9.63956 23.5003 9.7668 23.5003 9.89949V22.1271L35.7279 22.1271C35.7936 22.1271 35.8587 22.1401 35.9194 22.1652C35.9801 22.1904 36.0352 22.2272 36.0817 22.2737C36.1281 22.3201 36.165 22.3753 36.1901 22.436C36.2153 22.4967 36.2282 22.5617 36.2282 22.6274C36.2282 22.6931 36.2153 22.7582 36.1901 22.8189C36.165 22.8796 36.1281 22.9347 36.0817 22.9812C36.0352 23.0276 35.9801 23.0645 35.9194 23.0896C35.8587 23.1147 35.7936 23.1277 35.7279 23.1277L23.5003 23.1277V35.3553Z" fill="#424242"/>
</g>
<defs>
<clipPath id="clip0_1_14">
<rect width="32" height="32" fill="white" transform="translate(23) rotate(45)"/>
</clipPath>
</defs>
</svg>
